<?xml version="1.0" standalone="no"?>
<!DOCTYPE svg PUBLIC "-//W3C//DTD SVG 20010904//EN"
 "http://www.w3.org/TR/2001/REC-SVG-20010904/DTD/svg10.dtd">
<svg version="1.0" xmlns="http://www.w3.org/2000/svg"
 width="700.000000pt" height="700.000000pt" viewBox="0 0 700.000000 700.000000"
 preserveAspectRatio="xMidYMid meet">
<metadata>
Created by potrace 1.14, written by Peter Selinger 2001-2017
</metadata>
<g transform="translate(0.000000,700.000000) scale(0.100000,-0.100000)"
fill="#000000" stroke="none">
<path d="M1697 6124 c-1 -1 -30 -5 -64 -8 -367 -38 -692 -359 -750 -741 -12
-82 -9 -827 4 -910 61 -392 371 -694 758 -740 122 -15 868 -6 935 10 140 35
246 82 342 153 187 138 310 341 349 572 10 62 15 871 6 888 -3 4 -8 30 -11 57
-9 69 -42 168 -82 245 -126 243 -359 411 -644 466 -29 5 -837 13 -843 8z m785
-445 c86 -15 163 -55 228 -118 68 -67 107 -139 124 -230 12 -69 15 -741 3
-813 -28 -162 -150 -296 -312 -344 -52 -15 -109 -17 -420 -18 -198 -1 -387 2
-420 7 -172 21 -330 172 -363 347 -7 34 -11 201 -10 430 1 403 4 430 57 525
53 94 185 193 281 210 19 3 36 8 38 9 8 8 744 3 794 -5z"/>
<path d="M4461 6113 c-292 -46 -542 -234 -664 -504 -70 -153 -78 -219 -78
-679 0 -457 7 -523 66 -667 92 -222 260 -387 488 -482 136 -56 195 -62 652
-62 226 0 421 3 435 5 14 3 41 9 60 12 48 8 176 52 225 76 48 24 149 94 195
134 18 16 60 62 92 103 103 129 163 269 185 431 9 69 9 807 0 875 -37 285
-205 531 -457 669 -47 25 -176 73 -220 80 -19 3 -46 8 -60 12 -51 12 -835 10
-919 -3z m896 -439 c162 -49 276 -164 317 -320 18 -70 20 -793 2 -861 -47
-177 -197 -311 -369 -331 -34 -4 -222 -7 -417 -6 -308 1 -363 3 -415 18 -168
50 -289 187 -313 356 -3 25 -6 210 -6 411 1 273 4 379 14 415 42 157 149 265
309 315 49 15 105 17 445 16 289 0 401 -3 433 -13z"/>
<path d="M1740 3279 c-69 -3 -134 -8 -145 -12 -11 -3 -31 -8 -45 -11 -93 -16
-248 -88 -330 -154 -73 -59 -88 -73 -151 -151 -92 -113 -163 -274 -186 -424
-9 -58 -8 -828 1 -902 9 -75 58 -221 98 -294 111 -201 312 -361 528 -422 113
-32 174 -35 595 -34 277 1 418 5 460 14 371 77 646 361 705 726 15 90 15 822
0 923 -51 360 -347 665 -706 730 -83 15 -598 22 -824 11z m785 -453 c165 -48
287 -185 312 -351 13 -82 7 -767 -6 -825 -35 -151 -167 -284 -322 -327 -13 -4
-201 -8 -418 -9 -418 -1 -442 1 -538 47 -66 31 -154 118 -187 183 -52 103 -54
123 -52 558 2 401 2 403 26 458 46 108 122 191 219 240 79 40 150 45 539 44
317 -1 375 -3 427 -18z"/>
<path d="M4525 3278 c-139 -13 -265 -53 -380 -122 -71 -42 -91 -59 -168 -134
-141 -139 -231 -323 -251 -517 -8 -68 -10 -841 -3 -852 3 -5 8 -30 12 -58 15
-118 78 -260 167 -379 131 -174 364 -308 583 -334 68 -8 796 -8 865 1 89 10
120 17 194 44 218 77 399 242 499 454 32 68 66 185 74 259 8 70 9 808 1 875
-18 152 -98 333 -200 454 -152 180 -376 294 -603 307 -141 9 -701 10 -790 2z
m828 -447 c154 -37 280 -163 322 -323 19 -73 18 -789 -1 -862 -44 -166 -185
-300 -345 -325 -30 -5 -217 -9 -417 -9 -383 0 -419 4 -521 50 -59 27 -152 121
-186 187 -45 91 -51 153 -50 556 2 356 2 373 24 438 55 163 204 282 376 299
86 9 755 -1 798 -11z"/>
</g>
</svg>
